<svg xmlns="http://www.w3.org/2000/svg" width="512" height="528" viewBox="0 0 512 528" fill="none"><g clip-path="url(#clip0_135_1018)"><path d="M509.906 296.506C527.823 156.243 428.769 28.0105 288.762 10.0938C148.755 -7.82301 20.0105 91.2312 2.09376 231.238C-15.823 371.245 83.2312 499.734 223.238 517.906C363.501 535.823 491.734 436.769 509.906 296.506Z" fill="#FF6C37"></path><path d="M348.399 172.368L240.387 280.381L209.928 249.922C316.149 143.701 326.643 152.916 348.399 172.368Z" fill="white"></path><path d="M240.387 282.94C239.619 282.94 239.107 282.684 238.595 282.172L207.881 251.714C206.857 250.69 206.857 249.154 207.881 248.13C315.893 140.118 327.155 150.356 349.935 170.832C350.447 171.344 350.703 171.856 350.703 172.624C350.703 173.392 350.447 173.904 349.935 174.416L241.923 282.172C241.667 282.684 240.899 282.94 240.387 282.94ZM213.512 249.922L240.387 276.797L344.56 172.624C325.619 155.731 312.822 150.612 213.512 249.922Z" fill="#FF6C37"></path><path d="M271.357 311.352L241.922 281.917L349.935 173.904C378.858 203.083 335.602 250.435 271.357 311.352Z" fill="white"></path><path d="M271.357 313.911C270.589 313.911 270.077 313.655 269.565 313.143L240.131 283.708C239.619 283.197 239.619 282.685 239.619 281.917C239.619 281.149 239.875 280.637 240.387 280.125L348.399 172.113C349.423 171.089 350.959 171.089 351.982 172.113C358.637 178.255 362.221 186.958 361.965 195.916C361.453 224.327 329.203 260.417 273.405 313.143C272.637 313.655 271.869 313.911 271.357 313.911ZM245.506 281.917C261.887 298.554 268.797 305.209 271.357 307.768C314.357 266.816 356.078 224.839 356.334 195.916C356.59 189.262 354.03 182.607 349.679 177.488L245.506 281.917Z" fill="#FF6C37"></path><path d="M210.44 250.69L232.196 272.446C232.708 272.958 232.708 273.47 232.196 273.982C231.94 274.238 231.94 274.238 231.684 274.238L186.636 283.964C184.333 284.22 182.285 282.684 181.773 280.381C181.517 279.101 182.029 277.821 182.797 277.053L208.904 250.946C209.416 250.434 210.184 250.178 210.44 250.69Z" fill="white"></path><path d="M185.869 286.524C182.029 286.524 179.214 283.452 179.214 279.613C179.214 277.821 179.982 276.03 181.261 274.75L207.369 248.642C208.905 247.363 210.952 247.363 212.488 248.642L234.244 270.399C235.78 271.678 235.78 273.982 234.244 275.518C233.732 276.03 233.22 276.285 232.452 276.541L187.404 286.268C186.892 286.268 186.381 286.524 185.869 286.524ZM209.672 253.506L184.589 278.589C184.077 279.101 183.821 279.869 184.333 280.637C184.589 281.405 185.357 281.661 186.125 281.405L228.357 272.19L209.672 253.506Z" fill="#FF6C37"></path><path d="M405.477 112.475C389.096 96.6061 362.733 97.118 346.863 113.755C330.994 130.392 331.506 156.499 348.143 172.368C361.709 185.422 382.185 187.726 398.31 177.999L369.131 148.821L405.477 112.475Z" fill="white"></path><path d="M376.81 186.446C352.495 186.446 332.786 166.737 332.786 142.422C332.786 118.106 352.495 98.3975 376.81 98.3975C388.072 98.3975 399.078 102.749 407.269 110.683C407.781 111.195 408.037 111.707 408.037 112.475C408.037 113.243 407.781 113.755 407.269 114.267L372.715 148.82L399.846 175.952C400.87 176.975 400.87 178.511 399.846 179.535C399.59 179.791 399.59 179.791 399.334 180.047C392.679 184.142 384.745 186.446 376.81 186.446ZM376.81 103.772C355.31 103.772 337.905 121.177 338.161 142.677C338.161 164.178 355.566 181.582 377.066 181.327C382.953 181.327 388.84 180.047 394.215 177.231L367.34 150.612C366.828 150.1 366.572 149.588 366.572 148.82C366.572 148.053 366.828 147.541 367.34 147.029L401.638 112.731C394.727 106.844 386.025 103.772 376.81 103.772Z" fill="#FF6C37"></path><path d="M406.245 113.242L405.733 112.73L369.131 148.82L398.054 177.743C400.87 175.951 403.685 173.903 405.989 171.6C422.37 155.475 422.37 129.367 406.245 113.242Z" fill="white"></path><path d="M398.31 180.558C397.542 180.558 397.03 180.302 396.518 179.79L367.34 150.612C366.828 150.1 366.572 149.588 366.572 148.82C366.572 148.052 366.828 147.54 367.34 147.028L403.685 110.683C404.709 109.659 406.245 109.659 407.268 110.683L408.036 111.195C425.185 128.344 425.185 155.987 408.292 173.392C405.733 175.951 402.917 178.255 399.846 180.046C399.078 180.302 398.566 180.558 398.31 180.558ZM372.715 148.82L398.566 174.671C400.614 173.392 402.661 171.6 404.197 170.064C418.786 155.475 419.554 131.671 405.477 116.314L372.715 148.82Z" fill="#FF6C37"></path><path d="M352.75 176.975C346.608 170.832 336.625 170.832 330.482 176.975L233.988 273.47L250.113 289.595L352.239 200.011C358.893 194.38 359.405 184.398 353.774 177.743C353.262 177.487 353.006 177.231 352.75 176.975Z" fill="white"></path><path d="M249.857 292.155C249.089 292.155 248.577 291.899 248.065 291.387L231.94 275.262C230.916 274.238 230.916 272.702 231.94 271.678L328.435 175.184C335.602 168.017 347.12 168.017 354.286 175.184C361.453 182.35 361.453 193.868 354.286 201.035C354.03 201.291 353.774 201.547 353.518 201.803L251.393 291.387C251.137 291.899 250.625 292.155 249.857 292.155ZM237.571 273.47L250.113 286.012L350.447 197.964C356.078 193.356 356.59 184.91 351.983 179.279C347.375 173.648 338.929 173.136 333.298 177.743C333.042 177.999 332.786 178.255 332.274 178.511L237.571 273.47Z" fill="#FF6C37"></path><path d="M160.017 383.274C158.993 383.786 158.481 384.81 158.737 385.833L163.088 404.262C164.112 406.822 162.577 409.893 159.761 410.661C157.713 411.429 155.41 410.661 154.13 409.125L125.975 381.226L217.863 289.339L249.601 289.851L271.101 311.351C265.982 315.702 235.011 345.649 160.017 383.274Z" fill="white"></path><path d="M157.97 413.221C155.922 413.221 153.874 412.453 152.595 410.917L124.696 383.018C124.184 382.506 123.928 381.994 123.928 381.226C123.928 380.458 124.184 379.947 124.696 379.435L216.583 287.547C217.095 287.035 217.863 286.779 218.375 286.779L250.113 287.291C250.881 287.291 251.393 287.547 251.905 288.059L273.405 309.559C273.917 310.071 274.173 310.839 274.173 311.607C274.173 312.375 273.917 312.887 273.149 313.399L271.357 314.934C244.226 338.738 207.369 362.542 161.553 385.322L165.904 403.494C166.672 406.822 165.136 410.405 162.065 412.197C160.529 412.965 159.249 413.221 157.97 413.221ZM129.815 381.226L156.178 407.334C156.946 408.613 158.482 409.125 159.761 408.357C161.041 407.59 161.553 406.054 160.785 404.774L156.434 386.345C155.922 384.042 156.946 381.994 158.993 380.97C204.297 358.19 240.899 334.643 267.774 311.351L248.833 292.41L219.399 291.898L129.815 381.226Z" fill="#FF6C37"></path><path d="M104.219 403.239L126.231 381.227L158.993 413.989L106.779 410.405C104.475 410.149 102.939 408.102 103.195 405.798C103.195 404.774 103.451 403.751 104.219 403.239Z" fill="white"></path><path d="M158.993 416.292L106.523 412.709C102.683 412.453 100.124 409.126 100.38 405.286C100.636 403.751 101.148 402.215 102.428 401.191L124.44 379.179C125.463 378.155 126.999 378.155 128.023 379.179L160.785 411.941C161.553 412.709 161.809 413.733 161.297 414.757C160.785 415.78 160.017 416.292 158.993 416.292ZM126.231 384.81L106.011 405.03C105.243 405.542 105.243 406.822 106.011 407.334C106.267 407.59 106.523 407.846 107.035 407.846L152.339 410.917L126.231 384.81Z" fill="#FF6C37"></path><path d="M208.904 301.113C207.369 301.113 206.345 299.833 206.345 298.553C206.345 297.785 206.601 297.273 207.113 296.761L231.94 271.934C232.964 270.91 234.5 270.91 235.523 271.934L251.649 288.059C252.416 288.827 252.672 289.595 252.416 290.619C252.16 291.386 251.393 292.154 250.369 292.41L209.416 301.113C209.16 301.113 208.904 301.113 208.904 301.113ZM233.732 277.309L216.839 294.202L244.482 288.315L233.732 277.309Z" fill="#FF6C37"></path><path d="M249.601 289.851L221.446 295.993C219.398 296.505 217.351 295.226 216.839 293.178C216.583 291.898 216.839 290.618 217.863 289.595L233.476 273.981L249.601 289.851Z" fill="white"></path><path d="M220.934 298.553C217.351 298.553 214.535 295.738 214.535 292.154C214.535 290.363 215.303 288.827 216.327 287.547L231.94 271.934C232.964 270.91 234.5 270.91 235.523 271.934L251.648 288.059C252.416 288.827 252.672 289.595 252.416 290.619C252.16 291.386 251.393 292.154 250.369 292.41L222.214 298.553C221.702 298.553 221.19 298.553 220.934 298.553ZM233.732 277.309L219.91 291.13C219.398 291.642 219.398 292.154 219.654 292.666C219.91 293.178 220.422 293.434 221.19 293.434L244.738 288.315L233.732 277.309Z" fill="#FF6C37"></path><path d="M406.501 137.815C405.989 136.279 404.197 135.511 402.661 136.023C401.126 136.535 400.358 138.327 400.87 139.862C400.87 140.118 401.126 140.374 401.126 140.63C402.662 143.702 402.15 147.541 400.102 150.357C399.078 151.636 399.334 153.428 400.358 154.452C401.638 155.476 403.429 155.22 404.453 153.94C408.292 149.077 409.06 142.934 406.501 137.815Z" fill="#FF6C37"></path></g><defs><clipPath id="clip0_135_1018"><rect width="512" height="528" fill="white"></rect></clipPath></defs></svg>