<svg xmlns="http://www.w3.org/2000/svg" width="1024" height="512" viewBox="0 0 1024 512" fill="none"><path d="M334.251 113.195C329.781 123.913 324.058 134.065 317.201 143.437C276.429 102.682 216.892 87.0062 161.34 102.477C105.788 117.948 62.7799 161.844 48.7852 217.771C34.7906 273.698 51.934 332.8 93.6962 372.566L99.6098 377.788C122.182 396.8 149.573 409.198 178.754 413.611C207.934 418.025 237.766 414.281 264.951 402.796C292.137 391.31 315.616 372.529 332.792 348.53C349.968 324.531 360.171 296.249 362.274 266.812C366.626 226.065 354.68 174.507 334.251 113.212V113.195ZM116.455 373.479C112.973 377.779 107.239 379.563 101.931 378.001C96.6231 376.44 92.7831 371.815 92.2028 366.311C91.6226 360.807 94.4215 355.499 99.2855 352.854C104.15 350.208 110.123 350.772 114.424 354.253C120.286 359.006 121.191 367.616 116.438 373.487L116.455 373.479ZM333.577 325.556C294.084 378.164 209.758 360.423 155.682 362.966C155.682 362.966 146.099 363.529 136.448 365.116C136.448 365.116 140.083 363.563 144.743 361.814C182.716 348.587 200.662 346.053 223.727 334.183C267.162 312.107 310.11 263.757 319.044 213.496C302.524 261.846 252.356 303.42 206.686 320.308C175.386 331.845 118.844 343.074 118.844 343.074L116.566 341.854C78.0802 323.158 76.8855 239.838 146.774 212.967C177.494 201.165 206.72 207.642 239.804 199.74C275.132 191.343 316.007 164.873 332.647 130.338C351.249 185.592 373.658 271.992 333.474 325.581L333.577 325.556Z" fill="#68BD45"></path><path d="M396.431 308.118C394.844 307.162 393.546 305.796 392.672 304.162C391.799 302.529 391.384 300.69 391.47 298.84C391.454 297.413 391.723 295.997 392.263 294.675C392.802 293.354 393.6 292.154 394.611 291.146C395.621 290.138 396.823 289.342 398.145 288.806C399.468 288.27 400.884 288.003 402.311 288.023C404.322 288.034 406.295 288.564 408.041 289.561C417.896 296.525 429.579 300.442 441.64 300.826C453.128 300.826 459.749 295.86 459.749 288.169V287.745C459.749 278.691 447.335 275.585 433.671 271.389C416.453 266.424 397.219 259.453 397.219 237.147V236.699C397.219 214.589 415.557 201.163 438.758 201.163C451.5 201.401 464.003 204.666 475.234 210.69C477.145 211.618 478.758 213.063 479.89 214.861C481.021 216.66 481.626 218.739 481.635 220.864C481.646 222.307 481.366 223.738 480.812 225.071C480.258 226.404 479.442 227.612 478.412 228.624C477.382 229.635 476.159 230.429 474.816 230.958C473.474 231.488 472.038 231.741 470.595 231.705C468.745 231.738 466.919 231.276 465.308 230.366C455.806 225.401 446.08 222.402 438.013 222.402C427.644 222.402 421.657 227.367 421.657 233.891V234.338C421.657 242.955 434.314 246.499 447.959 250.914C464.982 256.269 484.186 263.941 484.186 284.932V285.38C484.186 309.895 465.182 322.036 440.885 322.036C425.008 321.926 409.525 317.078 396.421 308.113L396.431 308.118ZM494.278 214.672C494.241 212.913 494.557 211.165 495.206 209.53C495.854 207.895 496.823 206.406 498.055 205.151C499.287 203.896 500.758 202.899 502.381 202.22C504.003 201.541 505.745 201.193 507.504 201.197C509.277 201.187 511.033 201.528 512.673 202.202C514.312 202.875 515.802 203.867 517.055 205.121C518.308 206.374 519.301 207.863 519.974 209.503C520.648 211.142 520.989 212.899 520.979 214.672V222.762C529.595 210.602 541.746 200.876 560.677 200.876C587.972 200.876 614.795 222.514 614.795 261.419V261.867C614.795 300.519 588.264 322.386 560.677 322.386C541.205 322.386 529.035 312.66 520.979 301.843V343.027C520.979 346.574 519.57 349.976 517.061 352.484C514.553 354.992 511.151 356.401 507.604 356.401C504.057 356.401 500.655 354.992 498.146 352.484C495.638 349.976 494.229 346.574 494.229 343.027L494.278 214.672ZM587.744 261.818V261.371C587.744 238.841 572.482 224.15 554.368 224.15C536.255 224.15 520.351 239.241 520.351 261.371V261.818C520.351 284.148 536.255 299.039 554.368 299.039C572.482 299.039 587.744 284.795 587.744 261.75V261.818ZM625.032 214.696C624.996 212.935 625.312 211.185 625.963 209.549C626.613 207.912 627.584 206.422 628.819 205.167C630.053 203.911 631.527 202.915 633.152 202.238C634.778 201.56 636.522 201.215 638.283 201.221C640.057 201.208 641.815 201.547 643.456 202.219C645.097 202.892 646.588 203.884 647.842 205.138C649.096 206.392 650.088 207.882 650.76 209.523C651.432 211.164 651.771 212.923 651.758 214.696V221.122C653.097 211.191 669.448 201.27 681.136 201.27C682.909 201.145 684.687 201.402 686.351 202.024C688.016 202.646 689.527 203.617 690.783 204.874C692.04 206.13 693.012 207.641 693.633 209.306C694.255 210.97 694.512 212.749 694.387 214.521C694.491 217.583 693.471 220.578 691.52 222.941C689.569 225.303 686.821 226.871 683.794 227.348C664.79 230.649 651.763 247.2 651.763 270.298V308.756C651.753 310.512 651.397 312.249 650.713 313.867C650.03 315.485 649.034 316.952 647.781 318.183C646.529 319.415 645.046 320.387 643.416 321.043C641.787 321.699 640.044 322.026 638.288 322.006C636.544 322.019 634.815 321.686 633.202 321.024C631.588 320.363 630.123 319.387 628.89 318.154C627.657 316.921 626.681 315.455 626.02 313.842C625.358 312.228 625.024 310.499 625.037 308.756L625.032 214.696ZM704.508 214.754C704.475 212.995 704.793 211.246 705.444 209.611C706.096 207.976 707.067 206.487 708.301 205.232C709.535 203.977 711.007 202.981 712.631 202.303C714.255 201.624 715.998 201.276 717.758 201.28C719.531 201.269 721.288 201.611 722.927 202.284C724.567 202.958 726.056 203.95 727.309 205.203C728.563 206.457 729.555 207.946 730.228 209.586C730.902 211.225 731.243 212.982 731.233 214.754V308.838C731.101 312.294 729.635 315.564 727.144 317.963C724.652 320.361 721.329 321.701 717.87 321.701C714.412 321.701 711.088 320.361 708.597 317.963C706.105 315.564 704.64 312.294 704.508 308.838V214.754ZM744.732 214.803C744.696 213.043 745.012 211.292 745.662 209.656C746.312 208.019 747.283 206.529 748.518 205.274C749.753 204.018 751.226 203.022 752.852 202.345C754.477 201.667 756.222 201.322 757.983 201.328C759.755 201.318 761.512 201.66 763.151 202.333C764.791 203.007 766.28 203.999 767.534 205.252C768.787 206.505 769.779 207.995 770.453 209.634C771.126 211.274 771.468 213.031 771.457 214.803V220.285C775.348 214.213 780.759 209.264 787.153 205.93C793.548 202.596 800.703 200.993 807.909 201.28C834.187 201.28 849.448 218.951 849.448 245.944V308.77C849.478 310.519 849.156 312.255 848.501 313.877C847.846 315.498 846.871 316.971 845.634 318.208C844.398 319.444 842.925 320.419 841.303 321.074C839.682 321.729 837.946 322.051 836.197 322.021C834.429 322.067 832.67 321.759 831.024 321.113C829.377 320.468 827.877 319.498 826.612 318.263C825.346 317.028 824.341 315.551 823.657 313.92C822.972 312.29 822.621 310.539 822.625 308.77V254.171C822.625 236.062 813.571 225.659 797.662 225.659C782.201 225.659 771.384 236.5 771.384 254.614V308.756C771.252 312.211 769.787 315.482 767.295 317.88C764.804 320.278 761.48 321.618 758.022 321.618C754.563 321.618 751.24 320.278 748.748 317.88C746.256 315.482 744.791 312.211 744.659 308.756L744.732 214.803ZM966.957 200.978C965.184 200.968 963.427 201.309 961.788 201.983C960.148 202.656 958.659 203.648 957.406 204.902C956.152 206.155 955.16 207.644 954.487 209.284C953.813 210.923 953.472 212.68 953.482 214.453V222.387C944.866 210.227 932.715 200.481 913.779 200.481C886.484 200.481 859.637 222.12 859.637 261.001V261.448C859.564 300.134 886.089 321.968 913.705 321.968C933.031 321.968 945.167 312.363 953.404 301.595C952.065 322.61 939.209 333.704 916.651 333.704C904.084 333.831 891.707 330.638 880.769 324.45C879.264 323.711 877.606 323.337 875.93 323.36C872.982 323.359 870.152 324.511 868.042 326.569C865.933 328.628 864.712 331.43 864.641 334.376C864.591 336.708 865.285 338.995 866.624 340.905C867.962 342.815 869.875 344.249 872.084 344.998C886.093 351.914 901.519 355.474 917.142 355.396C938.133 355.396 954.48 350.431 965.107 339.721C974.809 329.995 979.993 315.381 979.993 295.753V214.399C980.026 212.656 979.714 210.924 979.075 209.302C978.436 207.68 977.483 206.2 976.27 204.948C975.057 203.695 973.608 202.695 972.008 202.005C970.407 201.314 968.685 200.947 966.942 200.924L966.957 200.978ZM920.112 298.864C901.774 298.864 886.766 284.503 886.766 261.526V261.078C886.766 238.549 902.003 223.858 920.112 223.858C938.221 223.858 954.129 238.768 954.129 261.078V261.526C954.129 283.832 938.25 298.864 920.112 298.864Z" fill="#68BD45"></path><path d="M717.885 182.543C725.327 182.543 731.359 176.51 731.359 169.068C731.359 161.627 725.327 155.594 717.885 155.594C710.443 155.594 704.41 161.627 704.41 169.068C704.41 176.51 710.443 182.543 717.885 182.543Z" fill="#68BD45"></path></svg>