<svg xmlns="http://www.w3.org/2000/svg" width="512" height="512" viewBox="0 0 512 512" fill="none"><g clip-path="url(#clip0_135_1014)"><path d="M99.5786 438.866V288.572L128.329 450.881L175.132 474.253L205.216 339.334V486.96L258 513V263.849L177.792 225.778L152.395 344.675L126.757 201.282L47 163V412.373L99.5786 438.866Z" fill="#FBBD16"></path><path d="M265 263.754L349.142 220V401.313L465.546 341.022L466 409.362L265.21 515L265 263.754Z" fill="#452E7F"></path><path d="M232.412 3L173.011 55.1501C173.011 55.1501 288.932 114.296 303.023 121.288C317.093 128.285 337.128 141.721 315.467 161.622C293.81 181.506 269.979 178.824 253.719 170.773C237.463 162.689 117.216 102.475 117.216 102.475L56 154.094C56 154.094 174.09 213.772 193.598 223.994C213.102 234.216 285.672 259.486 354.479 206.248C423.265 153.01 413.526 133.653 413.526 129.883C413.526 126.13 411.9 106.245 399.97 93.8641C388.069 81.5033 353.4 63.7573 338.766 56.2173C324.136 48.6937 232.412 3 232.412 3Z" fill="#962444"></path><path d="M464 306.911C464 315.943 457.054 323 448.039 323C439.107 323 432 315.931 432 306.911C432 298.074 439.107 291 448.039 291C457.07 291 464 298.074 464 306.911ZM435.995 306.911C435.995 313.985 441.109 319.624 448.155 319.624C454.99 319.624 460.001 313.985 460.001 307.008C460.001 299.918 454.973 294.199 448.039 294.199C441.105 294.199 435.995 299.922 435.995 306.911ZM445.571 315.255H441.964V299.344C443.396 299.049 445.381 298.867 447.944 298.867C450.895 298.867 452.216 299.344 453.359 300.019C454.214 300.711 454.878 301.965 454.878 303.514C454.878 305.261 453.558 306.616 451.651 307.19V307.388C453.165 307.966 454.02 309.136 454.507 311.263C454.973 313.702 455.262 314.677 455.634 315.251H451.75C451.263 314.677 450.99 313.208 450.507 311.381C450.218 309.617 449.282 308.84 447.284 308.84H445.575L445.571 315.255ZM445.67 306.236H447.379C449.36 306.236 450.99 305.561 450.99 303.911C450.99 302.442 449.942 301.488 447.668 301.488C446.718 301.488 446.058 301.572 445.67 301.669V306.236Z" fill="#6D6E71"></path></g><defs><clipPath id="clip0_135_1014"><rect width="512" height="512" fill="white"></rect></clipPath></defs></svg>